PathFileType	4	(X/Y/Z)	c:/Users/goper/Files/vsCode/490R/osim_files/C15/C15_Static03.trc
DataRate	CameraRate	NumFrames	NumMarkers	Units                	OrigDataRate	OrigDataStartFrame	OrigNumFrames
250.00	250.00	8	36	mm	250.0	697	1115
                Frame#	Time	LPSIS			LASIS			LTH1			LTH2			LTH3			LTH4			LLFE			LMFE			LSH1			LSH2			LSH3			LSH4			LLMAL			LMMAL			LCAL			LMTP5			LTOE			LMTP1			RPSIS			RASIS			RTH1			RTH2			RTH3			RTH4			RLFE			RMFE			RSH1			RSH2			RSH3			RSH4			RLMAL			RMMAL			RCAL			RMTP1			RTOE			RMTP5		
		X1	Y1	Z1	X2	Y2	Z2	X3	Y3	Z3	X4	Y4	Z4	X5	Y5	Z5	X6	Y6	Z6	X7	Y7	Z7	X8	Y8	Z8	X9	Y9	Z9	X10	Y10	Z10	X11	Y11	Z11	X12	Y12	Z12	X13	Y13	Z13	X14	Y14	Z14	X15	Y15	Z15	X16	Y16	Z16	X17	Y17	Z17	X18	Y18	Z18	X19	Y19	Z19	X20	Y20	Z20	X21	Y21	Z21	X22	Y22	Z22	X23	Y23	Z23	X24	Y24	Z24	X25	Y25	Z25	X26	Y26	Z26	X27	Y27	Z27	X28	Y28	Z28	X29	Y29	Z29	X30	Y30	Z30	X31	Y31	Z31	X32	Y32	Z32	X33	Y33	Z33	X34	Y34	Z34	X35	Y35	Z35	X36	Y36	Z36

697	2.78400	-419.23828	1028.15479	401.54608	-256.09586	1007.63214	329.02313	-346.24051	634.43616	250.49533	-351.31226	587.13239	263.72186	-294.21768	637.58392	253.15442	-296.64270	592.33032	259.74738	-334.31537	499.96918	276.78232	-329.32120	476.44672	395.81204	-405.59134	395.99756	259.33041	-408.66202	353.73944	250.03853	-344.06250	388.00015	256.35669	-355.00507	345.24060	247.43843	-402.46689	85.06249	288.58252	-382.46881	103.98519	379.47043	-463.61304	58.28342	331.73306	-280.96371	35.80741	263.39694	-224.51131	58.60281	326.48996	-260.33487	38.74376	381.80231	-412.69763	1028.77954	521.50568	-255.91214	1002.92792	583.58173	-330.77789	641.78308	652.40106	-331.43112	594.99927	646.85138	-271.35590	636.27258	638.75311	-280.26205	590.30743	638.07318	-328.82117	497.08698	624.47101	-346.37469	473.79166	508.20850	-419.36365	400.07904	649.33246	-421.63205	356.95908	656.57922	-357.88666	388.59491	651.31781	-370.37198	348.54291	659.21179	-416.34253	84.60544	616.74969	-387.02957	102.91321	528.86237	-476.81177	58.44729	572.52704	-273.55795	37.47505	534.89478	-239.46553	55.46358	588.41113	-299.55948	30.93013	654.03534
698	2.78800	-419.24466	1028.18909	401.56375	-256.02023	1007.66266	329.00162	-346.24908	634.41016	250.51364	-351.31274	587.12286	263.72089	-294.24384	637.56848	253.16257	-296.68204	592.29102	259.76291	-334.31470	499.95276	276.79596	-329.29990	476.46396	395.83911	-405.51172	396.03290	259.28525	-408.67722	353.72861	250.05377	-344.05307	387.99850	256.33240	-355.03140	345.23016	247.45462	-402.47043	85.06805	288.57443	-382.45862	103.99045	379.48120	-463.62292	58.26619	331.72546	-280.99493	35.79772	263.37643	-224.50275	58.60827	326.47415	-260.31564	38.77448	381.80109	-412.72546	1028.80200	521.51660	-255.91675	1002.94348	583.61749	-330.69717	641.90607	652.40460	-331.45389	595.00140	646.85480	-271.37268	636.27039	638.76361	-280.28772	590.28473	638.07965	-328.89890	497.05103	624.45605	-346.38745	473.79437	508.22681	-419.38336	400.09402	649.32574	-421.65164	356.97766	656.57239	-357.91910	388.55353	651.32184	-370.37634	348.54102	659.21240	-416.37177	84.61454	616.74005	-387.01712	102.90485	528.84869	-476.84167	58.46132	572.53363	-273.55133	37.48401	534.87219	-239.26309	55.61774	588.50391	-299.56534	30.92650	654.03705
699	2.79200	-419.26746	1028.18274	401.59634	-256.09479	1007.56586	329.01541	-346.23029	634.40112	250.50577	-349.98242	588.09131	262.46262	-294.26596	637.54718	253.17465	-296.68008	592.28955	259.78342	-334.30511	499.95535	276.79623	-329.31613	476.43927	395.83783	-405.55280	396.13235	259.11719	-408.68121	353.72842	250.04184	-344.05307	387.96881	256.33807	-355.03708	345.20288	247.43633	-402.46017	85.06109	288.58377	-382.49316	104.00436	379.46805	-463.62167	58.25863	331.73660	-280.96814	35.78707	263.38058	-224.49345	58.62162	326.45712	-260.32965	38.77115	381.77820	-412.74844	1028.84900	521.51929	-255.91087	1002.94525	583.58716	-330.78378	641.88782	652.36639	-331.49335	595.03613	646.85120	-271.37830	636.29102	638.76184	-280.31577	590.29120	638.08710	-328.94778	497.03922	624.41528	-346.41205	473.77939	508.24380	-419.39899	400.09665	649.35144	-421.66467	356.95612	656.56512	-357.92886	388.57874	651.34283	-370.41364	348.52689	659.20966	-416.39395	84.61333	616.73578	-387.09238	102.79947	528.83539	-476.89069	58.48303	572.52740	-273.57449	37.46856	534.85236	-239.25862	55.60311	588.47528	-299.58194	30.94175	654.03534
700	2.79600	-419.24792	1028.18567	401.61847	-256.05365	1007.53754	329.01212	-346.25305	634.37158	250.52704	-349.96872	588.06305	262.43408	-294.26682	637.53204	253.17276	-296.25104	592.19098	259.76968	-334.33304	499.93277	276.81525	-329.31775	476.45624	395.86005	-405.52530	395.98392	259.29318	-408.68622	353.70529	250.06293	-344.06058	387.93411	256.36487	-355.04959	345.17712	247.44441	-402.46500	85.05834	288.58270	-382.47198	104.03123	379.45361	-463.60239	58.19639	331.73642	-280.98761	35.76258	263.39178	-224.51314	58.62318	326.43628	-260.32242	38.78959	381.75256	-412.77759	1028.90796	521.52606	-255.89372	1002.97119	583.59338	-330.72552	641.96136	652.42230	-331.50626	595.09094	646.84473	-271.37805	636.31812	638.76941	-280.30261	590.31580	638.08771	-328.91464	497.12650	624.44861	-346.40790	473.79294	508.25479	-419.41351	400.11862	649.35455	-421.70721	357.00299	656.54279	-357.93170	388.58908	651.31067	-370.40604	348.56076	659.20721	-416.40140	84.64780	616.74615	-387.02924	102.85947	528.86914	-476.93640	58.55655	572.50037	-273.59018	37.46229	534.81799	-239.27599	55.60353	588.45685	-299.57214	30.95981	654.02234
701	2.80000	-419.21466	1028.21118	401.66434	-256.06409	1007.51215	329.01367	-346.24960	634.36493	250.54321	-351.31567	587.09033	263.72607	-294.28192	637.52655	253.18523	-296.70364	592.24384	259.78937	-334.32343	499.93216	276.82932	-329.25363	476.47501	395.87558	-405.54892	396.12186	259.13284	-408.68161	353.71072	250.07101	-344.05380	387.92337	256.32993	-355.04562	345.16846	247.45798	-402.46600	85.05158	288.58725	-382.42865	104.07145	379.45419	-463.56970	58.16591	331.74341	-280.87314	35.92664	263.26093	-224.48241	58.65134	326.39658	-260.29071	38.82389	381.74930	-412.80292	1028.95801	521.54114	-255.84428	1003.00665	583.58087	-330.69003	642.01251	652.44366	-331.60083	595.05371	646.79358	-271.31223	636.36157	638.71930	-280.26959	590.36414	638.06354	-328.87265	497.18973	624.42371	-346.40616	473.80405	508.26367	-419.42410	400.17188	649.35895	-421.71481	357.05319	656.52435	-357.88370	388.63403	651.29602	-370.35666	348.61447	659.19287	-416.36322	84.69923	616.71997	-387.03500	102.85828	528.87036	-476.95697	58.61591	572.46991	-273.50607	37.53501	534.76849	-239.23416	55.65050	588.41321	-299.54541	31.00900	654.01544
702	2.80400	-419.18103	1028.20435	401.69275	-256.06973	1007.48566	329.01187	-346.25742	634.34436	250.57426	-351.31012	587.09186	263.75647	-294.30167	637.50922	253.18724	-296.69626	592.25592	259.78467	-334.34521	499.93497	276.84186	-329.24850	476.46497	395.87732	-405.51559	395.97116	259.30188	-409.00974	353.30304	250.25783	-344.06613	387.91287	256.35150	-355.07339	345.15286	247.44870	-402.45605	85.05896	288.59506	-382.40085	104.11060	379.44110	-463.54376	58.15123	331.74042	-280.86710	35.96416	263.24823	-224.48178	58.66380	326.39691	-260.27695	38.83144	381.72488	-412.75360	1028.98254	521.55878	-255.79527	1003.04675	583.56714	-330.72345	642.01825	652.39319	-331.43799	595.18353	646.86816	-271.28937	636.41028	638.73132	-280.22574	590.38361	638.06421	-328.80548	497.24722	624.40552	-346.41568	473.79456	508.30347	-419.38516	400.18158	649.35767	-421.70013	357.07288	656.50751	-357.83081	388.68478	651.28259	-370.35004	348.61609	659.17249	-416.32651	84.72697	616.71454	-387.09644	102.76932	528.86957	-476.94162	58.67057	572.45660	-273.47916	37.55516	534.73785	-239.15160	55.69145	588.36414	-299.50342	31.03497	653.99799
703	2.80800	-419.18539	1028.21436	401.69879	-256.03873	1007.47699	329.02295	-346.25558	634.35968	250.58829	-351.30505	587.08527	263.78598	-294.32440	637.51019	253.20622	-296.70120	592.24255	259.79938	-334.33194	499.94104	276.87003	-329.27628	476.45996	395.88861	-405.51877	395.97089	259.33099	-409.02213	353.30228	250.25224	-344.05820	387.92679	256.36295	-355.06287	345.15726	247.46542	-402.44977	85.05299	288.59918	-382.40207	104.11349	379.43405	-463.57718	58.19013	331.74515	-280.96506	35.77112	263.40530	-224.46107	58.67001	326.37878	-260.26657	38.84945	381.72888	-412.74274	1029.00562	521.56677	-255.76480	1003.05872	583.58026	-330.69412	642.06622	652.43799	-331.43628	595.21490	646.88983	-271.26529	636.39886	638.71265	-280.22156	590.41229	638.06158	-328.81247	497.25995	624.43610	-346.41632	473.80594	508.30325	-419.39725	400.20874	649.34686	-421.71466	357.08658	656.48663	-357.83530	388.69760	651.27618	-370.34372	348.62335	659.18451	-416.33350	84.74986	616.72076	-387.02234	102.86473	528.89008	-476.97165	58.69084	572.42188	-273.47873	37.57985	534.72382	-239.18195	55.69447	588.35730	-299.51160	31.04115	653.99530
704	2.81200	-419.21878	1028.23206	401.68939	-256.01257	1007.48425	329.02139	-346.26703	634.37701	250.63014	-351.32623	587.11066	263.80481	-294.30685	637.54901	253.19583	-296.73273	592.26147	259.80560	-334.32101	499.94858	276.87354	-329.34106	476.46133	395.87741	-405.51581	396.01718	259.34515	-408.69708	353.72620	250.11652	-344.04340	387.94879	256.34988	-355.05878	345.19827	247.45934	-402.47247	85.05151	288.60516	-382.41739	104.11821	379.43323	-463.55280	58.22768	331.71173	-280.84912	35.98616	263.24258	-224.47452	58.67664	326.39340	-260.26724	38.87119	381.72571	-412.77118	1029.02380	521.56921	-255.76553	1003.06451	583.58350	-330.74628	642.06152	652.42432	-331.49911	595.23676	646.86725	-271.27527	636.41882	638.74048	-280.24042	590.42047	638.07611	-328.83536	497.29245	624.42090	-346.41019	473.82571	508.30923	-419.45206	400.21570	649.34149	-421.77444	357.12457	656.47845	-357.84485	388.71051	651.26996	-370.37250	348.63733	659.18097	-416.35550	84.77235	616.72198	-387.02338	102.88657	528.88721	-477.01389	58.69428	572.44086	-273.46582	37.60151	534.73376	-239.15639	55.72710	588.35614	-299.51639	31.04561	653.98315
